# 3ds Max Wavefront OBJ Exporter v0.97b - (c)2007 guruware
# File Created: 19.04.2011 23:08:50

#
# object Groot
#

v  0.000000000000 -1.000000000000 -1.000000000000
v  -0.866025447845 -1.000000000000 -0.499999970198
v  -0.866025388241 -1.000000000000 0.500000059605
v  0.000000119209 -1.000000000000 1.000000000000
v  0.866025447845 -1.000000000000 0.499999910593
v  0.866025447845 -1.000000000000 -0.499999880791
v  0.000000000000 1.000000000000 -1.000000000000
v  -0.866025447845 1.000000000000 -0.499999970198
v  -0.866025388241 1.000000000000 0.500000059605
v  0.000000119209 1.000000000000 1.000000000000
v  0.866025447845 1.000000000000 0.499999910593
v  0.866025447845 1.000000000000 -0.499999880791
# 12 vertices

vn -0.500000000000 0.000000000000 -0.866025447845
vn -0.500000000000 0.000000000000 -0.866025447845
vn -0.500000000000 0.000000000000 -0.866025447845
vn -1.000000000000 0.000000000000 0.000000059605
vn -1.000000000000 0.000000000000 0.000000059605
vn -1.000000000000 0.000000000000 0.000000059605
vn -0.499999940395 0.000000000000 0.866025507450
vn -0.499999940395 0.000000000000 0.866025507450
vn -0.499999940395 0.000000000000 0.866025507450
vn 0.500000119209 0.000000000000 0.866025328636
vn 0.500000119209 0.000000000000 0.866025328636
vn 0.500000119209 0.000000000000 0.866025328636
vn 1.000000000000 0.000000000000 -0.000000000000
vn 1.000000000000 0.000000000000 -0.000000000000
vn 1.000000000000 0.000000000000 -0.000000000000
vn 0.500000059605 0.000000000000 -0.866025328636
vn 0.500000059605 0.000000000000 -0.866025328636
vn 0.500000059605 0.000000000000 -0.866025328636
vn 0.000000000000 1.000000000000 -0.000000000000
vn 0.000000000000 1.000000000000 -0.000000000000
vn 0.000000000000 1.000000000000 -0.000000000000
vn 0.000000000000 1.000000000000 -0.000000000000
vn 0.000000000000 1.000000000000 -0.000000000000
vn 0.000000000000 1.000000000000 -0.000000000000
vn 0.000000000000 0.999999940395 -0.000000000000
vn 0.000000000000 0.999999940395 -0.000000000000
vn 0.000000000000 0.999999940395 -0.000000000000
vn 0.000000000000 1.000000000000 -0.000000000000
vn 0.000000000000 1.000000000000 -0.000000000000
vn 0.000000000000 1.000000000000 -0.000000000000
vn -0.500000000000 0.000000000000 -0.866025447845
vn -0.500000000000 0.000000000000 -0.866025447845
vn -0.500000000000 0.000000000000 -0.866025447845
vn -1.000000000000 0.000000000000 0.000000059605
vn -1.000000000000 0.000000000000 0.000000059605
vn -1.000000000000 0.000000000000 0.000000059605
vn -0.499999940395 0.000000000000 0.866025507450
vn -0.499999940395 0.000000000000 0.866025507450
vn -0.499999940395 0.000000000000 0.866025507450
vn 0.500000119209 0.000000000000 0.866025328636
vn 0.500000119209 0.000000000000 0.866025328636
vn 0.500000119209 0.000000000000 0.866025328636
vn 1.000000000000 0.000000000000 -0.000000000000
vn 1.000000000000 0.000000000000 -0.000000000000
vn 1.000000000000 0.000000000000 -0.000000000000
vn 0.500000059605 0.000000000000 -0.866025328636
vn 0.500000059605 0.000000000000 -0.866025328636
vn 0.500000059605 0.000000000000 -0.866025328636
# 48 vertex normals

vt 0.994023561478 0.007583798375 0.000000000000
vt 0.671903133392 0.007583768573 0.000000000000
vt 0.671903133392 0.007583768573 0.000000000000
vt 0.994023561478 0.007583798375 0.000000000000
vt 0.671903133392 0.007583768573 0.000000000000
vt 0.994023561478 0.007583798375 0.000000000000
vt 0.994023561478 0.007583798375 0.000000000000
vt 0.994023561478 0.007583798375 0.000000000000
vt 0.994023680687 0.651824831963 0.000000000000
vt 0.671903133392 0.651824891567 0.000000000000
vt 0.994023680687 0.651824831963 0.000000000000
vt 0.671903133392 0.651824891567 0.000000000000
vt 0.994023680687 0.651824831963 0.000000000000
vt 0.671903133392 0.651824891567 0.000000000000
vt 0.334083914757 0.251268267632 0.000000000000
vt 0.653752148151 0.435828626156 0.000000000000
vt 0.653752148151 0.804949581623 0.000000000000
vt 0.334083944559 0.989510118961 0.000000000000
vt 0.014415827580 0.804949641228 0.000000000000
vt 0.014415810816 0.435828745365 0.000000000000
vt 0.994023680687 0.651824831963 0.000000000000
vt 0.994023680687 0.651824831963 0.000000000000
vt 0.671903133392 0.007583768573 0.000000000000
vt 0.671903133392 0.651824891567 0.000000000000
vt 0.994023561478 0.007583798375 0.000000000000
vt 0.994023680687 0.651824831963 0.000000000000
vt 0.671903133392 0.007583768573 0.000000000000
vt 0.671903133392 0.651824891567 0.000000000000
vt 0.671903133392 0.007583768573 0.000000000000
vt 0.671903133392 0.651824891567 0.000000000000
# 30 texture coords

g Groot
s 1
f 1/27/1 2/7/2 7/28/3 
f 2/2/4 3/8/5 8/14/6 
f 3/3/7 4/4/8 9/10/9 
f 4/29/10 5/25/11 10/30/12 
f 5/5/13 6/6/14 11/12/15 
f 6/23/16 1/1/17 12/24/18 
f 7/15/19 11/19/20 12/20/21 
f 7/15/22 8/16/23 9/17/24 
f 7/15/25 9/17/26 11/19/27 
f 9/17/28 10/18/29 11/19/30 
f 2/7/31 8/21/32 7/28/33 
f 3/8/34 9/13/35 8/14/36 
f 4/4/37 10/9/38 9/10/39 
f 5/25/40 11/26/41 10/30/42 
f 6/6/43 12/11/44 11/12/45 
f 1/1/46 7/22/47 12/24/48 
# 16 faces

